<svg xmlns="http://www.w3.org/2000/svg" width="24" height="24" viewBox="0 0 24 24">
  <path id="seat" class="cls-1" fill="#b4c1c6" fill-rule="evenodd" d="M22.922,7.029C21.564,13.187,19.557,17.1,15.59,21.263c0.968-1.806.026-3.25-.946-3.34C15.991,15.61,18.366,14.582,20.26,7.1,21.06,5.323,23.189,5.808,22.922,7.029ZM14.346,20.066A1.983,1.983,0,0,1,12.164,22l-2.5-.006c-1.205,0-2.153-.08-1.742-1.213A2.494,2.494,0,0,1,10.7,19.01L11.846,19C13.051,19,14.346,18.861,14.346,20.066Z"/>
  <path id="human" class="cls-2" fill="#15bc8a" fill-rule="evenodd" d="M16.617,7.969a2.07,2.07,0,1,1,2.07-2.07A2.07,2.07,0,0,1,16.617,7.969ZM16.529,9.284a1.476,1.476,0,0,1,.036,2.114S14.639,14.176,13.12,16.4a1.055,1.055,0,0,1-.956.605l-4.426,0-3.462,4.23a1.438,1.438,0,0,1-1.61.688A1.379,1.379,0,0,1,2.1,20.1l3.635-4.96a35.262,35.262,0,0,1,5.034-.834l3.61-4.732A1.531,1.531,0,0,1,16.529,9.284Z"/>
</svg>
